<svg width="42" height="32" viewBox="0 0 42 32" fill="none" xmlns="http://www.w3.org/2000/svg">
<path fill-rule="evenodd" clip-rule="evenodd" d="M41.8276 0L41.0431 5.12H30.3076L31.1334 0H41.8276Z" fill="#FFCB05"/>
<path fill-rule="evenodd" clip-rule="evenodd" d="M29.0684 18.0849L28.2839 23.1636H14.7407C9.16656 23.1636 4.3356 19.1171 3.34463 13.6668C3.22076 12.9649 3.13818 12.3042 3.13818 11.6023C3.13818 10.7765 3.22077 9.95069 3.42722 9.12489C4.58334 3.83973 9.33172 0.0410156 14.7407 0.0410156H29.8943L29.0684 5.11973H14.782C12.0982 5.11973 9.66204 6.81263 8.71236 9.33134C8.42333 10.0746 8.29946 10.8178 8.29946 11.6023C8.29946 12.263 8.38204 12.8823 8.5885 13.5017C9.4143 16.2268 11.933 18.0849 14.782 18.0849H29.0684Z" fill="#000002"/>
<path fill-rule="evenodd" clip-rule="evenodd" d="M6.15225 26.9208H28.1187C30.8025 26.9208 33.2386 25.2279 34.1883 22.7092C34.4773 21.966 34.6012 21.2228 34.6012 20.4382C34.6012 19.7776 34.5186 19.1582 34.3122 18.5389C33.4864 15.8137 30.9677 13.9557 28.1187 13.9557H13.7084L14.4929 8.87695H28.1187C33.6928 8.87695 38.5238 12.9234 39.5148 18.3737C39.6386 19.0757 39.7212 19.7363 39.7212 20.4382C39.7212 21.2641 39.6386 22.0899 39.4322 22.9157C38.276 28.2008 33.5277 31.9995 28.1187 31.9995H0L2.60129 15.4421C3.63354 18.126 4.54192 19.9841 6.85418 21.8834L7.01934 22.0073L6.15225 26.9208Z" fill="#FFCB05"/>
</svg>
