<svg width="15" height="20" viewBox="0 0 15 20" fill="none" xmlns="http://www.w3.org/2000/svg">
<path d="M7.25 0C9.17282 0 11.0169 0.763837 12.3765 2.12348C13.7362 3.48311 14.5 5.32718 14.5 7.25C14.5 9.346 13.6 11.27 11.837 12.992C11.7604 13.0668 11.7007 13.1572 11.662 13.257L11.63 13.36L10.5 18.255C10.3922 18.7219 10.1381 19.1422 9.77472 19.4546C9.41138 19.767 8.95779 19.9553 8.48 19.992L8.307 19.999H6.193C5.71385 19.999 5.24721 19.846 4.86103 19.5624C4.47486 19.2787 4.18932 18.8792 4.046 18.422L4.001 18.255L2.871 13.36C2.83894 13.2202 2.76745 13.0924 2.665 12.992C0.985 11.352 0.088 9.529 0.00600004 7.548L0 7.25L0.00400019 7.01C0.0665303 5.12995 0.857338 3.3478 2.2094 2.03996C3.56146 0.732126 5.36891 0.000998429 7.25 0.00100017M9.365 16.499H5.134L5.463 17.919C5.49733 18.0667 5.57563 18.2005 5.68757 18.3028C5.7995 18.4051 5.93982 18.4711 6.09 18.492L6.193 18.5H8.307C8.45886 18.4998 8.60709 18.4536 8.73208 18.3673C8.85707 18.2811 8.95294 18.1589 9.007 18.017L9.037 17.918L9.365 16.499ZM7.25 1.5C5.76306 1.49995 4.33391 2.07592 3.26254 3.10701C2.19117 4.13811 1.56089 5.54415 1.504 7.03L1.5 7.25L1.507 7.527C1.583 9.09 2.307 10.547 3.713 11.919C3.977 12.177 4.173 12.495 4.284 12.845L4.333 13.023L4.788 14.998H9.711L10.169 13.022C10.2515 12.6632 10.4208 12.3301 10.662 12.052L10.789 11.919C12.193 10.546 12.917 9.091 12.993 7.527L13 7.25L12.996 7.03C12.9394 5.54397 12.3092 4.13768 11.2378 3.10637C10.1664 2.07506 8.73711 1.49996 7.25 1.5Z" fill="#2B3034"/>
</svg>
