<svg width="19" height="19" viewBox="0 0 19 19" fill="none" xmlns="http://www.w3.org/2000/svg">
<path d="M8.499 7.003L8.5 18.503H3.25C2.42003 18.5031 1.62147 18.1856 1.0181 17.6157C0.41472 17.0458 0.0522448 16.2666 0.00500011 15.438L0 15.255V7.002L8.499 7.003ZM9.999 13.002H18.5V15.255C18.5 16.117 18.1576 16.9436 17.5481 17.5531C16.9386 18.1626 16.112 18.505 15.25 18.505L10 18.503L9.999 13.002ZM15.251 0.00200009C16.081 0.00193123 16.8795 0.319401 17.4829 0.889308C18.0863 1.45922 18.4488 2.23837 18.496 3.067L18.501 3.251L18.5 11.502H9.999L10 0.000999928L15.251 0.00200009ZM8.5 0L8.499 5.503H0V3.251C0 2.38905 0.34241 1.5624 0.951903 0.952903C1.5614 0.34341 2.38805 0.000999928 3.25 0.000999928L8.5 0Z" fill="#0E1011"/>
</svg>
