<svg width="20" height="20" viewBox="0 0 20 20" fill="none" xmlns="http://www.w3.org/2000/svg">
<path d="M3.5 4C3.5 3.33696 3.76339 2.70107 4.23223 2.23223C4.70107 1.76339 5.33696 1.5 6 1.5C6.66304 1.5 7.29893 1.76339 7.76777 2.23223C8.23661 2.70107 8.5 3.33696 8.5 4C8.5 4.66304 8.23661 5.29893 7.76777 5.76777C7.29893 6.23661 6.66304 6.5 6 6.5C5.33696 6.5 4.70107 6.23661 4.23223 5.76777C3.76339 5.29893 3.5 4.66304 3.5 4ZM6 0C4.93913 0 3.92172 0.421427 3.17157 1.17157C2.42143 1.92172 2 2.93913 2 4C2 5.06087 2.42143 6.07828 3.17157 6.82843C3.92172 7.57857 4.93913 8 6 8C7.06087 8 8.07828 7.57857 8.82843 6.82843C9.57857 6.07828 10 5.06087 10 4C10 2.93913 9.57857 1.92172 8.82843 1.17157C8.07828 0.421427 7.06087 0 6 0ZM13.5 5C13.5 4.60218 13.658 4.22064 13.9393 3.93934C14.2206 3.65804 14.6022 3.5 15 3.5C15.3978 3.5 15.7794 3.65804 16.0607 3.93934C16.342 4.22064 16.5 4.60218 16.5 5C16.5 5.39782 16.342 5.77936 16.0607 6.06066C15.7794 6.34196 15.3978 6.5 15 6.5C14.6022 6.5 14.2206 6.34196 13.9393 6.06066C13.658 5.77936 13.5 5.39782 13.5 5ZM15 2C14.2044 2 13.4413 2.31607 12.8787 2.87868C12.3161 3.44129 12 4.20435 12 5C12 5.79565 12.3161 6.55871 12.8787 7.12132C13.4413 7.68393 14.2044 8 15 8C15.7956 8 16.5587 7.68393 17.1213 7.12132C17.6839 6.55871 18 5.79565 18 5C18 4.20435 17.6839 3.44129 17.1213 2.87868C16.5587 2.31607 15.7956 2 15 2ZM2.25 10C1.65326 10 1.08097 10.2371 0.65901 10.659C0.237053 11.081 0 11.6533 0 12.25V12.528C0.00104755 12.5975 0.0057205 12.667 0.0139999 12.736C0.0971183 13.48 0.364526 14.1915 0.792 14.806C1.61 15.974 3.172 17 6 17C8.828 17 10.39 15.975 11.208 14.805C11.6355 14.1905 11.9029 13.479 11.986 12.735C11.9931 12.6662 11.9977 12.5971 12 12.528V12.25C12 11.6533 11.7629 11.081 11.341 10.659C10.919 10.2371 10.3467 10 9.75 10H2.25ZM1.5 12.507V12.25C1.5 12.0511 1.57902 11.8603 1.71967 11.7197C1.86032 11.579 2.05109 11.5 2.25 11.5H9.75C9.94891 11.5 10.1397 11.579 10.2803 11.7197C10.421 11.8603 10.5 12.0511 10.5 12.25V12.507L10.493 12.587C10.4355 13.0749 10.2589 13.5413 9.979 13.945C9.486 14.65 8.422 15.5 6 15.5C3.578 15.5 2.514 14.65 2.02 13.945C1.74025 13.5409 1.56409 13.0742 1.507 12.586L1.5 12.507ZM16.192 10.995L16.668 9.79C16.91 9.176 17.588 8.857 18.216 9.062L18.647 9.203C19.371 9.44 19.973 10.009 19.997 10.772C20.097 13.882 17.521 18.355 14.784 19.827C14.111 20.189 13.316 19.95 12.749 19.436L12.412 19.131C12.1764 18.9177 12.0306 18.6228 12.0042 18.306C11.9779 17.9893 12.0729 17.6743 12.27 17.425L13.07 16.415C13.36 16.048 13.837 15.885 14.29 15.995L15.582 16.308C16.6847 15.578 17.276 14.5517 17.356 13.229L16.439 12.265C16.2808 12.099 16.1735 11.8912 16.1297 11.6661C16.0859 11.4411 16.1075 11.2082 16.192 10.995Z" fill="#2B3034"/>
</svg>
