<svg width="20" height="20" viewBox="0 0 20 20" fill="none" xmlns="http://www.w3.org/2000/svg">
<path d="M9.752 7.27869e-07C10.1135 -0.000262256 10.4715 0.0707408 10.8055 0.208949C11.1395 0.347156 11.4429 0.549857 11.6985 0.805456C11.9541 1.06106 12.1568 1.36454 12.2951 1.69854C12.4333 2.03255 12.5043 2.39053 12.504 2.752V17.25C12.504 17.6114 12.4328 17.9693 12.2945 18.3031C12.1562 18.637 11.9535 18.9404 11.698 19.196C11.4424 19.4515 11.139 19.6542 10.8051 19.7925C10.4713 19.9308 10.1134 20.002 9.752 20.002C9.3906 20.002 9.03274 19.9308 8.69886 19.7925C8.36497 19.6542 8.06159 19.4515 7.80604 19.196C7.5505 18.9404 7.34778 18.637 7.20948 18.3031C7.07118 17.9693 7 17.6114 7 17.25V2.752C6.99974 2.39053 7.07074 2.03255 7.20895 1.69854C7.34716 1.36454 7.54986 1.06106 7.80546 0.805456C8.06106 0.549857 8.36454 0.347156 8.69855 0.208949C9.03255 0.0707408 9.39053 -0.000262256 9.752 7.27869e-07ZM16.752 5C17.1135 4.99974 17.4714 5.07074 17.8055 5.20895C18.1395 5.34716 18.4429 5.54986 18.6985 5.80546C18.9541 6.06106 19.1568 6.36454 19.2951 6.69855C19.4333 7.03255 19.5043 7.39053 19.504 7.752V17.25C19.504 17.9799 19.2141 18.6799 18.698 19.196C18.1819 19.7121 17.4819 20.002 16.752 20.002C16.0221 20.002 15.3221 19.7121 14.806 19.196C14.2899 18.6799 14 17.9799 14 17.25V7.752C13.9997 7.39053 14.0707 7.03255 14.2089 6.69855C14.3472 6.36454 14.5499 6.06106 14.8055 5.80546C15.0611 5.54986 15.3645 5.34716 15.6985 5.20895C16.0326 5.07074 16.3905 4.99974 16.752 5ZM2.752 10C3.11347 9.99974 3.47145 10.0707 3.80546 10.2089C4.13946 10.3472 4.44295 10.5499 4.69855 10.8055C4.95414 11.0611 5.15685 11.3645 5.29505 11.6985C5.43326 12.0326 5.50426 12.3905 5.504 12.752V17.25C5.504 17.9799 5.21406 18.6799 4.69796 19.196C4.18186 19.7121 3.48188 20.002 2.752 20.002C2.02212 20.002 1.32214 19.7121 0.806043 19.196C0.289943 18.6799 7.27869e-07 17.9799 7.27869e-07 17.25V12.752C-0.000262256 12.3905 0.0707408 12.0326 0.208949 11.6985C0.347156 11.3645 0.549857 11.0611 0.805456 10.8055C1.06106 10.5499 1.36454 10.3472 1.69854 10.2089C2.03255 10.0707 2.39053 9.99974 2.752 10ZM9.752 1.5C9.06 1.5 8.5 2.06 8.5 2.752V17.25C8.5 17.5821 8.63191 17.9005 8.8667 18.1353C9.1015 18.3701 9.41995 18.502 9.752 18.502C10.0841 18.502 10.4025 18.3701 10.6373 18.1353C10.8721 17.9005 11.004 17.5821 11.004 17.25V2.752C11.004 2.06 10.444 1.5 9.752 1.5ZM16.752 6.5C16.061 6.5 15.5 7.06 15.5 7.752V17.25C15.5 17.5821 15.6319 17.9005 15.8667 18.1353C16.1015 18.3701 16.42 18.502 16.752 18.502C17.0841 18.502 17.4025 18.3701 17.6373 18.1353C17.8721 17.9005 18.004 17.5821 18.004 17.25V7.752C18.004 7.06 17.444 6.5 16.752 6.5ZM2.752 11.5C2.06 11.5 1.5 12.06 1.5 12.752V17.25C1.5 17.4144 1.53238 17.5772 1.5953 17.7291C1.65822 17.881 1.75044 18.019 1.8667 18.1353C1.98296 18.2516 2.12098 18.3438 2.27288 18.4067C2.42478 18.4696 2.58759 18.502 2.752 18.502C2.91642 18.502 3.07922 18.4696 3.23112 18.4067C3.38302 18.3438 3.52104 18.2516 3.6373 18.1353C3.75356 18.019 3.84578 17.881 3.9087 17.7291C3.97162 17.5772 4.004 17.4144 4.004 17.25V12.752C4.004 12.06 3.444 11.5 2.752 11.5Z" fill="#2B3034"/>
</svg>
