<svg width="19" height="20" viewBox="0 0 19 20" fill="none" xmlns="http://www.w3.org/2000/svg">
<path d="M9.37257 0C10.1066 0.008 10.8376 0.093 11.5546 0.253C11.7071 0.28705 11.8452 0.367903 11.9495 0.484261C12.0539 0.600618 12.1193 0.746668 12.1366 0.902L12.3066 2.429C12.3306 2.64428 12.4048 2.85093 12.5232 3.03231C12.6416 3.21368 12.801 3.36473 12.9884 3.47329C13.1759 3.58185 13.3862 3.64489 13.6025 3.65735C13.8187 3.6698 14.0349 3.63132 14.2336 3.545L15.6336 2.93C15.7758 2.86735 15.934 2.85044 16.0863 2.88161C16.2386 2.91278 16.3774 2.99049 16.4836 3.104C17.4956 4.18516 18.2495 5.48163 18.6886 6.896C18.7344 7.04474 18.7329 7.20406 18.6842 7.35189C18.6354 7.49971 18.5419 7.62871 18.4166 7.721L17.1756 8.637C17.0007 8.76517 16.8585 8.93273 16.7605 9.1261C16.6625 9.31947 16.6114 9.53321 16.6114 9.75C16.6114 9.96679 16.6625 10.1805 16.7605 10.3739C16.8585 10.5673 17.0007 10.7348 17.1756 10.863L18.4186 11.778C18.5441 11.8704 18.6378 11.9995 18.6865 12.1476C18.7353 12.2956 18.7367 12.4551 18.6906 12.604C18.2518 14.0183 17.4983 15.3147 16.4866 16.396C16.3806 16.5095 16.242 16.5872 16.0899 16.6186C15.9378 16.6499 15.7798 16.6333 15.6376 16.571L14.2316 15.954C14.0332 15.867 13.8171 15.8279 13.6007 15.84C13.3844 15.852 13.174 15.9148 12.9865 16.0233C12.7989 16.1317 12.6396 16.2828 12.5213 16.4643C12.403 16.6458 12.3291 16.8526 12.3056 17.068L12.1356 18.594C12.1186 18.7475 12.0546 18.892 11.9524 19.0078C11.8502 19.1236 11.7148 19.2051 11.5646 19.241C10.1162 19.5863 8.60694 19.5863 7.15857 19.241C7.00817 19.2053 6.87249 19.1239 6.7701 19.0081C6.66771 18.8923 6.60361 18.7476 6.58657 18.594L6.41757 17.07C6.39302 16.8553 6.31847 16.6494 6.1999 16.4687C6.08134 16.2881 5.92206 16.1377 5.73486 16.0298C5.54766 15.9218 5.33776 15.8593 5.12201 15.8472C4.90626 15.8351 4.69067 15.8737 4.49257 15.96L3.08657 16.576C2.94422 16.6385 2.78596 16.6553 2.63369 16.6239C2.48141 16.5926 2.34263 16.5147 2.23657 16.401C1.22469 15.3185 0.471472 14.0206 0.0335671 12.605C-0.0125365 12.4561 -0.0111165 12.2966 0.0376298 12.1486C0.0863761 12.0005 0.180027 11.8714 0.305567 11.779L1.54857 10.863C1.72341 10.7348 1.86561 10.5673 1.96362 10.3739C2.06163 10.1805 2.1127 9.96679 2.1127 9.75C2.1127 9.53321 2.06163 9.31947 1.96362 9.1261C1.86561 8.93273 1.72341 8.76517 1.54857 8.637L0.305567 7.723C0.180027 7.63065 0.0863761 7.50148 0.0376298 7.35345C-0.0111165 7.20542 -0.0125365 7.04588 0.0335671 6.897C0.472608 5.48263 1.22649 4.18616 2.23857 3.105C2.34475 2.99149 2.48358 2.91378 2.63585 2.88261C2.78813 2.85144 2.94632 2.86835 3.08857 2.931L4.48857 3.546C4.68759 3.63227 4.90407 3.67066 5.12061 3.65809C5.33716 3.64551 5.54774 3.58232 5.73544 3.4736C5.92314 3.36487 6.08271 3.21363 6.20135 3.03204C6.32 2.85045 6.39439 2.64356 6.41857 2.428L6.58857 0.902C6.60573 0.746355 6.67117 0.599984 6.77573 0.483414C6.88028 0.366845 7.0187 0.285924 7.17157 0.252C7.88757 0.0933334 8.62123 0.00933333 9.37257 0ZM9.37257 1.5C8.91893 1.50482 8.46631 1.54393 8.01857 1.617L7.90857 2.594C7.85854 3.0433 7.70366 3.47457 7.45641 3.85305C7.20916 4.23152 6.87645 4.54662 6.48511 4.77294C6.09376 4.99927 5.65471 5.13049 5.20336 5.15603C4.752 5.18158 4.30095 5.10073 3.88657 4.92L2.98757 4.526C2.41611 5.21996 1.96118 6.00215 1.64057 6.842L2.43757 7.429C2.80203 7.69646 3.0984 8.04596 3.30272 8.44922C3.50704 8.85248 3.61355 9.29818 3.61365 9.75025C3.61375 10.2023 3.50742 10.6481 3.30328 11.0514C3.09914 11.4548 2.80291 11.8044 2.43857 12.072L1.63957 12.66C1.95957 13.502 2.41557 14.286 2.98757 14.982L3.89257 14.585C4.30606 14.4045 4.75616 14.3235 5.20664 14.3487C5.65712 14.3739 6.0954 14.5045 6.48618 14.73C6.87697 14.9555 7.20936 15.2696 7.45658 15.647C7.70381 16.0245 7.85896 16.4547 7.90957 16.903L8.01857 17.887C8.90857 18.037 9.81757 18.037 10.7066 17.887L10.8166 16.903C10.8661 16.454 11.0207 16.0229 11.2676 15.6447C11.5146 15.2664 11.847 14.9515 12.2381 14.7255C12.6293 14.4995 13.0681 14.3686 13.5191 14.3435C13.9702 14.3184 14.4208 14.3998 14.8346 14.581L15.7386 14.977C16.3106 14.2825 16.7658 13.4996 17.0866 12.659L16.2886 12.071C15.9241 11.8035 15.6277 11.454 15.4234 11.0508C15.2191 10.6475 15.1126 10.2018 15.1125 9.74975C15.1124 9.29769 15.2187 8.85194 15.4229 8.4486C15.627 8.04525 15.9232 7.69562 16.2876 7.428L17.0846 6.841C16.7637 6.00073 16.3085 5.21819 15.7366 4.524L14.8396 4.917C14.4253 5.09835 13.9742 5.17974 13.5227 5.15461C13.0712 5.12949 12.6319 4.99853 12.2404 4.77233C11.8488 4.54613 11.5159 4.23103 11.2686 3.85245C11.0213 3.47388 10.8664 3.04245 10.8166 2.593L10.7076 1.617C10.2664 1.54493 9.81952 1.50582 9.37257 1.5ZM9.36057 6C10.3551 6 11.309 6.39509 12.0122 7.09835C12.7155 7.80161 13.1106 8.75544 13.1106 9.75C13.1106 10.7446 12.7155 11.6984 12.0122 12.4017C11.309 13.1049 10.3551 13.5 9.36057 13.5C8.366 13.5 7.41218 13.1049 6.70892 12.4017C6.00566 11.6984 5.61057 10.7446 5.61057 9.75C5.61057 8.75544 6.00566 7.80161 6.70892 7.09835C7.41218 6.39509 8.366 6 9.36057 6ZM9.36057 7.5C8.76383 7.5 8.19153 7.73705 7.76958 8.15901C7.34762 8.58097 7.11057 9.15326 7.11057 9.75C7.11057 10.3467 7.34762 10.919 7.76958 11.341C8.19153 11.7629 8.76383 12 9.36057 12C9.9573 12 10.5296 11.7629 10.9516 11.341C11.3735 10.919 11.6106 10.3467 11.6106 9.75C11.6106 9.15326 11.3735 8.58097 10.9516 8.15901C10.5296 7.73705 9.9573 7.5 9.36057 7.5Z" fill="#2B3034"/>
</svg>
