<svg width="21" height="20" viewBox="0 0 21 20" fill="none" xmlns="http://www.w3.org/2000/svg">
<path d="M10.5 1.5C10.2045 1.5 9.91194 1.5582 9.63896 1.67127C9.36598 1.78434 9.11794 1.95008 8.90901 2.15901C8.70008 2.36794 8.53434 2.61598 8.42127 2.88896C8.3082 3.16194 8.25 3.45453 8.25 3.75C8.25 4.04547 8.3082 4.33806 8.42127 4.61104C8.53434 4.88402 8.70008 5.13206 8.90901 5.34099C9.11794 5.54992 9.36598 5.71566 9.63896 5.82873C9.91194 5.9418 10.2045 6 10.5 6C11.0967 6 11.669 5.76295 12.091 5.34099C12.5129 4.91903 12.75 4.34674 12.75 3.75C12.75 3.15326 12.5129 2.58097 12.091 2.15901C11.669 1.73705 11.0967 1.5 10.5 1.5ZM6.75 3.75C6.75 2.75544 7.14509 1.80161 7.84835 1.09835C8.55161 0.395088 9.50544 0 10.5 0C11.4946 0 12.4484 0.395088 13.1517 1.09835C13.8549 1.80161 14.25 2.75544 14.25 3.75C14.25 4.74456 13.8549 5.69839 13.1517 6.40165C12.4484 7.10491 11.4946 7.5 10.5 7.5C9.50544 7.5 8.55161 7.10491 7.84835 6.40165C7.14509 5.69839 6.75 4.74456 6.75 3.75ZM4.5 11.25C4.501 10.976 4.529 10.711 4.584 10.455L1.668 11.235C1.38254 11.3116 1.11496 11.4436 0.880553 11.6236C0.646143 11.8037 0.449495 12.0281 0.301841 12.2841C0.154187 12.5401 0.0584216 12.8227 0.0200143 13.1158C-0.018393 13.4088 0.00131086 13.7066 0.0780001 13.992L0.66 16.1655C0.816475 16.7487 1.08872 17.2944 1.46052 17.7702C1.83233 18.246 2.29608 18.6421 2.82417 18.9349C3.35225 19.2277 3.93386 19.4112 4.53436 19.4746C5.13486 19.5379 5.74196 19.4797 6.3195 19.3035C5.91833 18.9144 5.57349 18.4711 5.295 17.9865C4.58838 18.0547 3.88047 17.8701 3.29711 17.4656C2.71376 17.061 2.29277 16.4627 2.109 15.777L1.5255 13.602C1.47421 13.4099 1.50134 13.2052 1.60091 13.033C1.70049 12.8609 1.86437 12.7353 2.0565 12.684L4.5 12.03V11.25ZM14.829 19.347L14.679 19.305C15.0795 18.915 15.426 18.4725 15.705 17.9865C16.4116 18.0547 17.1195 17.8701 17.7029 17.4656C18.2862 17.061 18.7072 16.4627 18.891 15.777L19.473 13.602C19.5243 13.4101 19.4974 13.2056 19.3981 13.0335C19.2989 12.8614 19.1354 12.7357 18.9435 12.684L16.5 12.03V11.25C16.499 10.976 16.471 10.711 16.416 10.455L19.3305 11.235C19.6161 11.3114 19.8838 11.4434 20.1184 11.6233C20.353 11.8032 20.5498 12.0276 20.6976 12.2837C20.8454 12.5397 20.9413 12.8224 20.9798 13.1155C21.0183 13.4086 20.9987 13.7065 20.922 13.992L20.34 16.1655C20.0307 17.3179 19.2764 18.3002 18.2429 18.8965C17.2095 19.4929 15.9815 19.6559 14.829 19.347ZM1.5 6C1.5 5.60218 1.65804 5.22064 1.93934 4.93934C2.22064 4.65804 2.60218 4.5 3 4.5C3.39782 4.5 3.77936 4.65804 4.06066 4.93934C4.34196 5.22064 4.5 5.60218 4.5 6C4.5 6.39782 4.34196 6.77936 4.06066 7.06066C3.77936 7.34196 3.39782 7.5 3 7.5C2.60218 7.5 2.22064 7.34196 1.93934 7.06066C1.65804 6.77936 1.5 6.39782 1.5 6ZM3 3C2.20435 3 1.44129 3.31607 0.87868 3.87868C0.316071 4.44129 0 5.20435 0 6C0 6.79565 0.316071 7.55871 0.87868 8.12132C1.44129 8.68393 2.20435 9 3 9C3.79565 9 4.55871 8.68393 5.12132 8.12132C5.68393 7.55871 6 6.79565 6 6C6 5.20435 5.68393 4.44129 5.12132 3.87868C4.55871 3.31607 3.79565 3 3 3ZM18 4.5C17.6022 4.5 17.2206 4.65804 16.9393 4.93934C16.658 5.22064 16.5 5.60218 16.5 6C16.5 6.39782 16.658 6.77936 16.9393 7.06066C17.2206 7.34196 17.6022 7.5 18 7.5C18.3978 7.5 18.7794 7.34196 19.0607 7.06066C19.342 6.77936 19.5 6.39782 19.5 6C19.5 5.60218 19.342 5.22064 19.0607 4.93934C18.7794 4.65804 18.3978 4.5 18 4.5ZM15 6C15 5.20435 15.3161 4.44129 15.8787 3.87868C16.4413 3.31607 17.2044 3 18 3C18.7956 3 19.5587 3.31607 20.1213 3.87868C20.6839 4.44129 21 5.20435 21 6C21 6.79565 20.6839 7.55871 20.1213 8.12132C19.5587 8.68393 18.7956 9 18 9C17.2044 9 16.4413 8.68393 15.8787 8.12132C15.3161 7.55871 15 6.79565 15 6ZM8.25 9C7.65326 9 7.08097 9.23705 6.65901 9.65901C6.23705 10.081 6 10.6533 6 11.25V15C6 16.1935 6.47411 17.3381 7.31802 18.182C8.16193 19.0259 9.30653 19.5 10.5 19.5C11.6935 19.5 12.8381 19.0259 13.682 18.182C14.5259 17.3381 15 16.1935 15 15V11.25C15 10.6533 14.7629 10.081 14.341 9.65901C13.919 9.23705 13.3467 9 12.75 9H8.25ZM7.5 11.25C7.5 11.0511 7.57902 10.8603 7.71967 10.7197C7.86032 10.579 8.05109 10.5 8.25 10.5H12.75C12.9489 10.5 13.1397 10.579 13.2803 10.7197C13.421 10.8603 13.5 11.0511 13.5 11.25V15C13.5 15.7956 13.1839 16.5587 12.6213 17.1213C12.0587 17.6839 11.2956 18 10.5 18C9.70435 18 8.94129 17.6839 8.37868 17.1213C7.81607 16.5587 7.5 15.7956 7.5 15V11.25Z" fill="#2B3034"/>
</svg>
